<svg width="73.055908" height="18.000000" viewBox="0 0 73.0559 18" fill="none" xmlns="http://www.w3.org/2000/svg" xmlns:xlink="http://www.w3.org/1999/xlink">
	<desc>
			Created with Pixso.
	</desc>
	<defs/>
	<path id="Vector" d="M4.35 16C1.96 15.98 0 11.12 0 8.64C0 4.6 3.03 3.72 4.2 3.72C4.72 3.72 5.29 3.92 5.78 4.11C6.13 4.23 6.49 4.37 6.69 4.37C6.81 4.37 7.09 4.25 7.34 4.15C7.87 3.94 8.53 3.68 9.3 3.68C9.3 3.68 9.3 3.68 9.3 3.68C9.87 3.68 11.61 3.81 12.66 5.38L12.9 5.75L12.55 6.01C12.05 6.39 11.13 7.08 11.13 8.46C11.13 10.08 12.17 10.71 12.67 11.01C12.89 11.14 13.12 11.28 13.12 11.58C13.12 11.77 11.56 15.97 9.29 15.97C8.74 15.97 8.35 15.8 8 15.66C7.65 15.51 7.35 15.38 6.85 15.38C6.6 15.38 6.28 15.5 5.94 15.63C5.48 15.8 4.96 16 4.36 16L4.35 16Z" fill="#FFFFFF" fill-opacity="1.000000" fill-rule="nonzero"/>
	<path id="Vector" d="M9.54 0C9.6 2.12 8.07 3.6 6.55 3.51C6.3 1.81 8.07 0 9.54 0Z" fill="#FFFFFF" fill-opacity="1.000000" fill-rule="nonzero"/>
	<path id="Vector" d="M29.71 5L30.61 5L30.61 0.62L29.71 0.62L29.71 5ZM36.56 5L37.46 5L37.46 0.62L36.56 0.62L36.56 5ZM31.72 1.73C32.01 1.73 32.26 1.49 32.26 1.19C32.26 0.9 32.01 0.65 31.72 0.65C31.42 0.65 31.18 0.9 31.18 1.19C31.18 1.49 31.42 1.73 31.72 1.73ZM21.59 5L22.64 5L21.21 0.8L19.98 0.8L18.56 5L19.61 5L19.82 4.34L21.38 4.34L21.59 5ZM34.62 1.91C34.22 1.91 33.92 2.05 33.73 2.28L33.73 0.8L32.83 0.8L32.83 5L33.73 5L33.73 4.71C33.92 4.94 34.22 5.08 34.62 5.08C35.41 5.08 36.05 4.39 36.05 3.5C36.05 2.6 35.41 1.91 34.62 1.91ZM55.67 1.91C55.27 1.91 54.97 2.06 54.81 2.28L54.81 0.8L53.91 0.8L53.91 5L54.81 5L54.81 3.36C54.81 2.93 55.04 2.74 55.37 2.74C55.65 2.74 55.89 2.91 55.89 3.29L55.89 5L56.79 5L56.79 3.15C56.79 2.34 56.27 1.91 55.67 1.91ZM53.4 2.86L53.4 2L52.78 2L52.78 1.16L51.88 1.43L51.88 2L51.4 2L51.4 2.86L51.88 2.86L51.88 3.92C51.88 4.76 52.22 5.12 53.4 5L53.4 4.18C53 4.2 52.78 4.18 52.78 3.92L52.78 2.86L53.4 2.86ZM20.1 3.43L20.6 1.89L21.09 3.43L20.1 3.43ZM28.15 2L28.15 2.28C27.95 2.05 27.66 1.91 27.25 1.91C26.47 1.91 25.82 2.6 25.82 3.5C25.82 4.39 26.47 5.08 27.25 5.08C27.66 5.08 27.95 4.94 28.15 4.71L28.15 5L29.05 5L29.05 2L28.15 2ZM38.93 3.86L41.06 3.86Q41.09 3.68 41.09 3.5C41.09 2.59 40.45 1.91 39.57 1.91C38.62 1.91 37.97 2.6 37.97 3.5C37.97 4.39 38.61 5.08 39.64 5.08C40.21 5.08 40.65 4.87 40.94 4.46L40.22 4.05C40.1 4.18 39.89 4.28 39.65 4.28C39.32 4.28 39.04 4.17 38.93 3.86ZM44.54 5.08C45.43 5.08 46.13 4.39 46.13 3.5C46.13 2.6 45.43 1.91 44.54 1.91C43.66 1.91 42.95 2.6 42.95 3.5C42.95 4.39 43.66 5.08 44.54 5.08ZM48.4 1.91C48 1.91 47.7 2.06 47.54 2.28L47.54 2L46.64 2L46.64 5L47.54 5L47.54 3.36C47.54 2.93 47.77 2.74 48.1 2.74C48.39 2.74 48.62 2.91 48.62 3.29L48.62 5L49.52 5L49.52 3.15C49.52 2.34 49.01 1.91 48.4 1.91ZM58.21 3.86L60.34 3.86C60.36 3.74 60.38 3.62 60.38 3.5C60.38 2.59 59.73 1.91 58.85 1.91C57.9 1.91 57.26 2.6 57.26 3.5C57.26 4.39 57.89 5.08 58.92 5.08C59.49 5.08 59.93 4.87 60.23 4.46L59.51 4.05C59.39 4.18 59.18 4.28 58.93 4.28C58.6 4.28 58.32 4.17 58.21 3.86ZM24.76 2L24.14 3.9L23.51 2L22.52 2L23.63 5L24.65 5L25.76 2L24.76 2ZM31.27 5L32.17 5L32.17 2L31.27 2L31.27 5ZM38.91 3.18C38.99 2.88 39.22 2.71 39.56 2.71C39.83 2.71 40.1 2.84 40.2 3.18L38.91 3.18ZM58.19 3.18C58.28 2.88 58.5 2.71 58.85 2.71C59.12 2.71 59.39 2.84 59.48 3.18L58.19 3.18ZM27.43 4.23C27.02 4.23 26.72 3.95 26.72 3.5C26.72 3.05 27.02 2.76 27.43 2.76C27.85 2.76 28.15 3.05 28.15 3.5C28.15 3.95 27.85 4.23 27.43 4.23ZM34.44 4.23C34.03 4.23 33.73 3.95 33.73 3.5C33.73 3.05 34.03 2.76 34.44 2.76C34.85 2.76 35.15 3.05 35.15 3.5C35.15 3.95 34.85 4.23 34.44 4.23ZM44.54 4.2C44.15 4.2 43.85 3.92 43.85 3.5C43.85 3.07 44.15 2.79 44.54 2.79C44.93 2.79 45.23 3.07 45.23 3.5C45.23 3.92 44.93 4.2 44.54 4.2ZM38.36 16L39.86 16L39.86 8.7L38.36 8.7L38.36 16ZM51.76 16.14C53.28 16.14 54.36 15.34 54.36 13.99C54.36 12.51 53.17 12.14 52.11 11.82C51.02 11.49 50.85 11.27 50.85 10.95C50.85 10.66 51.1 10.41 51.6 10.41C52.24 10.41 52.57 10.73 52.81 11.23L54.16 10.43C53.65 9.41 52.75 8.86 51.6 8.86C50.39 8.86 49.25 9.64 49.25 10.99C49.25 12.33 50.27 12.83 51.31 13.12C52.36 13.41 52.76 13.58 52.76 14.01C52.76 14.28 52.57 14.58 51.81 14.58C51.02 14.58 50.59 14.18 50.34 13.61L48.96 14.41C49.35 15.43 50.29 16.14 51.76 16.14ZM23.61 16L25.36 16L22.98 9L20.94 9L18.56 16L20.31 16L20.66 14.89L23.26 14.89L23.61 16ZM57.9 12.43L57.9 11L56.87 11L56.87 9.6L55.37 10.05L55.37 11L54.57 11L54.57 12.43L55.37 12.43L55.37 14.21C55.37 15.61 55.94 16.2 57.9 16L57.9 14.64C57.24 14.68 56.87 14.64 56.87 14.21L56.87 12.43L57.9 12.43ZM21.14 13.39L21.96 10.83L22.78 13.39L21.14 13.39ZM28.89 10.86C28.22 10.86 27.73 11.09 27.4 11.47L27.4 11L25.9 11L25.9 18L27.4 18L27.4 15.53C27.73 15.91 28.22 16.14 28.89 16.14C30.2 16.14 31.28 14.99 31.28 13.5C31.28 12.01 30.2 10.86 28.89 10.86ZM35.12 10.86C34.45 10.86 33.96 11.09 33.63 11.47L33.63 11L32.13 11L32.13 18L33.63 18L33.63 15.53C33.96 15.91 34.45 16.14 35.12 16.14C36.43 16.14 37.51 14.99 37.51 13.5C37.51 12.01 36.43 10.86 35.12 10.86ZM42.3 14.1L45.85 14.1C45.89 13.91 45.91 13.71 45.91 13.5C45.91 11.99 44.83 10.86 43.37 10.86C41.79 10.86 40.71 12.01 40.71 13.5C40.71 14.99 41.77 16.14 43.48 16.14C44.43 16.14 45.17 15.79 45.66 15.11L44.46 14.41C44.26 14.64 43.91 14.8 43.5 14.8C42.95 14.8 42.49 14.62 42.3 14.1ZM61.05 16.14C62.52 16.14 63.7 14.99 63.7 13.5C63.7 12.01 62.52 10.86 61.05 10.86C59.58 10.86 58.4 12.01 58.4 13.5C58.4 14.99 59.58 16.14 61.05 16.14ZM69.44 14.1L72.99 14.1Q73.05 13.81 73.05 13.5C73.05 11.99 71.97 10.86 70.51 10.86C68.93 10.86 67.85 12.01 67.85 13.5C67.85 14.99 68.91 16.14 70.62 16.14C71.57 16.14 72.31 15.79 72.8 15.11L71.6 14.41C71.4 14.64 71.05 14.8 70.64 14.8C70.09 14.8 69.63 14.62 69.44 14.1ZM66.05 11.89L66.05 11L64.55 11L64.55 16L66.05 16L66.05 13.74C66.05 12.75 66.93 12.5 67.55 12.6L67.55 10.89C66.92 10.89 66.25 11.22 66.05 11.89ZM42.27 12.98C42.41 12.47 42.79 12.18 43.36 12.18C43.81 12.18 44.26 12.39 44.42 12.98L42.27 12.98ZM69.41 12.98C69.55 12.47 69.93 12.18 70.5 12.18C70.95 12.18 71.4 12.39 71.56 12.98L69.41 12.98ZM28.59 14.72C27.9 14.72 27.4 14.25 27.4 13.5C27.4 12.75 27.9 12.28 28.59 12.28C29.28 12.28 29.78 12.75 29.78 13.5C29.78 14.25 29.28 14.72 28.59 14.72ZM34.82 14.72C34.13 14.72 33.63 14.25 33.63 13.5C33.63 12.75 34.13 12.28 34.82 12.28C35.51 12.28 36.01 12.75 36.01 13.5C36.01 14.25 35.51 14.72 34.82 14.72ZM61.05 14.68C60.4 14.68 59.9 14.21 59.9 13.5C59.9 12.79 60.4 12.32 61.05 12.32C61.7 12.32 62.2 12.79 62.2 13.5C62.2 14.21 61.7 14.68 61.05 14.68Z" fill="#FFFFFF" fill-opacity="1.000000" fill-rule="evenodd"/>
</svg>
