<svg width="78.881104" height="20.000000" viewBox="0 0 78.8811 20" fill="none" xmlns="http://www.w3.org/2000/svg" xmlns:xlink="http://www.w3.org/1999/xlink">
	<desc>
			Created with Pixso.
	</desc>
	<defs>
		<clipPath id="clip1_521">
			<rect id="google-play 1" rx="0.000000" width="19.000000" height="19.000000" transform="translate(0.500000 0.500000)" fill="white" fill-opacity="0"/>
		</clipPath>
	</defs>
	<rect id="google-play 1" rx="0.000000" width="19.000000" height="19.000000" transform="translate(0.500000 0.500000)" fill="#FFFFFF" fill-opacity="0"/>
	<g clip-path="url(#clip1_521)">
		<path id="Vector" d="M11.5 10L1.46 19.67C0.99 19.35 0.71 18.81 0.71 18.24L0.71 1.75C0.71 1.18 0.99 0.65 1.46 0.33L11.5 10Z" fill="#2196F3" fill-opacity="1.000000" fill-rule="nonzero"/>
		<path id="Vector" d="M15.02 6.62L11.5 10L1.46 0.33C1.5 0.3 1.54 0.27 1.58 0.24C2.11 -0.08 2.77 -0.09 3.31 0.22L15.02 6.62Z" fill="#4CAF50" fill-opacity="1.000000" fill-rule="nonzero"/>
		<path id="Vector" d="M19.28 10C19.28 10.64 18.93 11.23 18.37 11.54L15.02 13.37L11.5 10L15.02 6.62L18.37 8.45C18.93 8.76 19.28 9.35 19.28 10Z" fill="#F0BB1F" fill-opacity="1.000000" fill-rule="nonzero"/>
		<path id="Vector" d="M15.02 13.37L3.31 19.78C2.77 20.08 2.11 20.07 1.58 19.75C1.54 19.73 1.5 19.7 1.46 19.67L11.5 10L15.02 13.37Z" fill="#F15A2B" fill-opacity="1.000000" fill-rule="nonzero"/>
	</g>
	<path id="Vector" d="M31.02 4.87L28.21 4.87L28.21 6L29.71 6C29.51 6.53 29.02 6.86 28.28 6.86C27.19 6.86 26.52 6.16 26.52 5.21C26.52 4.23 27.22 3.53 28.16 3.53C28.8 3.53 29.3 3.82 29.53 4.19L30.62 3.56C30.15 2.81 29.24 2.28 28.17 2.28C26.52 2.28 25.24 3.58 25.24 5.2C25.24 6.81 26.5 8.11 28.26 8.11C29.83 8.11 31.02 7.07 31.02 5.35L31.02 4.87ZM50.74 8.11C52.35 8.11 53.65 6.84 53.65 5.2C53.65 3.55 52.35 2.28 50.74 2.28C49.13 2.28 47.83 3.55 47.83 5.2C47.83 6.84 49.13 8.11 50.74 8.11ZM32.62 6.76L32.62 5.77L34.62 5.77L34.62 4.56L32.62 4.56L32.62 3.63L36.22 3.63L36.22 8L37.5 8L37.5 3.63L38.94 3.63L38.94 2.39L31.34 2.39L31.34 8L34.86 8L34.86 6.76L32.62 6.76ZM40.7 2.39L40.7 8L41.98 8L41.98 2.39L40.7 2.39ZM46.31 2.39L42.15 2.39L42.15 3.63L43.59 3.63L43.59 8L44.87 8L44.87 3.63L46.31 3.63L46.31 2.39ZM57.09 2.39L57.09 5.43L54.93 2.39L53.97 2.39L53.97 8L55.25 8L55.25 4.95L57.41 8L58.37 8L58.37 2.39L57.09 2.39ZM50.74 6.86C49.83 6.86 49.11 6.2 49.11 5.2C49.11 4.2 49.83 3.53 50.74 3.53C51.65 3.53 52.37 4.2 52.37 5.2C52.37 6.2 51.65 6.86 50.74 6.86ZM31.02 14.6L31.02 14.39L28.21 14.39L28.21 14.79L30.59 14.79C30.54 15.33 30.31 15.78 29.91 16.14Q29.82 16.21 29.73 16.28L29.73 16.28Q29.16 16.68 28.32 16.68Q27.57 16.68 27 16.35Q26.73 16.2 26.5 15.96Q26.2 15.65 26.02 15.28Q25.8 14.79 25.8 14.2Q25.8 13.58 26.04 13.08Q26.21 12.73 26.49 12.43Q26.75 12.17 27.07 12Q27.6 11.72 28.28 11.72Q28.7 11.72 29.08 11.85Q29.29 11.92 29.48 12.04Q29.88 12.26 30.13 12.6Q30.23 12.73 30.32 12.88L30.69 12.66C30.46 12.25 30.12 11.92 29.69 11.68Q29.47 11.55 29.22 11.46Q28.78 11.31 28.28 11.31Q27.5 11.31 26.89 11.63Q26.51 11.83 26.2 12.15Q25.84 12.51 25.63 12.94Q25.37 13.51 25.37 14.2Q25.37 14.86 25.62 15.42Q25.83 15.87 26.2 16.25Q26.5 16.55 26.86 16.74Q27.49 17.08 28.32 17.08Q29.27 17.08 29.94 16.64Q30.12 16.52 30.28 16.37Q30.63 16.03 30.82 15.6Q31.02 15.15 31.02 14.6ZM35.82 16.85Q36.3 16.64 36.7 16.24Q37.11 15.83 37.32 15.33Q37.54 14.81 37.54 14.2Q37.54 13.57 37.31 13.05Q37.1 12.56 36.7 12.16Q36.29 11.75 35.81 11.54Q35.28 11.31 34.65 11.31Q34.02 11.31 33.49 11.54Q33 11.75 32.6 12.16Q32.2 12.56 31.99 13.05Q31.76 13.57 31.76 14.2Q31.76 14.81 31.98 15.33Q32.19 15.83 32.6 16.24Q33 16.64 33.48 16.85Q34.01 17.08 34.65 17.08Q35.29 17.08 35.82 16.85ZM42.36 16.85Q42.83 16.64 43.23 16.24Q43.64 15.83 43.85 15.33Q44.07 14.81 44.07 14.2Q44.07 13.57 43.84 13.05Q43.63 12.56 43.23 12.16Q42.83 11.75 42.34 11.54Q41.81 11.31 41.18 11.31Q40.55 11.31 40.02 11.54Q39.54 11.75 39.13 12.16Q38.73 12.56 38.52 13.05Q38.29 13.57 38.29 14.2Q38.29 14.81 38.51 15.33Q38.72 15.83 39.13 16.24Q39.53 16.64 40.01 16.85Q40.54 17.08 41.18 17.08Q41.82 17.08 42.36 16.85ZM50.47 14.6L50.47 14.39L47.66 14.39L47.66 14.79L50.04 14.79C49.99 15.33 49.77 15.78 49.36 16.14C48.96 16.5 48.42 16.68 47.77 16.68Q47.02 16.68 46.46 16.35Q46.18 16.2 45.95 15.96Q45.65 15.65 45.48 15.28Q45.25 14.79 45.25 14.2Q45.25 13.58 45.49 13.08Q45.66 12.73 45.94 12.43C46.41 11.96 47.01 11.72 47.74 11.72C48.17 11.72 48.57 11.82 48.94 12.04C49.3 12.25 49.58 12.53 49.77 12.88L50.14 12.66C49.91 12.25 49.58 11.92 49.14 11.68C48.72 11.43 48.25 11.31 47.74 11.31Q46.95 11.31 46.34 11.63Q45.96 11.83 45.65 12.15Q45.29 12.51 45.09 12.94Q44.82 13.51 44.82 14.2Q44.82 14.86 45.07 15.42Q45.28 15.87 45.66 16.25Q45.95 16.55 46.31 16.74Q46.95 17.08 47.77 17.08Q48.72 17.08 49.39 16.64Q49.57 16.52 49.73 16.37Q50.09 16.03 50.27 15.6Q50.47 15.15 50.47 14.6ZM54.6 16.6L51.96 16.6L51.96 11.39L51.54 11.39L51.54 17L54.6 17L54.6 16.6ZM58.7 16.6L55.9 16.6L55.9 14.37L58.46 14.37L58.46 13.97L55.9 13.97L55.9 11.8L58.66 11.8L58.66 11.39L55.48 11.39L55.48 17L58.7 17L58.7 16.6ZM65.03 11.89Q64.84 11.7 64.61 11.58Q64.25 11.39 63.78 11.39L61.88 11.39L61.88 17L62.3 17L62.3 14.86L63.78 14.86Q64.26 14.86 64.63 14.66Q64.85 14.55 65.03 14.37Q65.23 14.17 65.35 13.93Q65.53 13.58 65.53 13.13Q65.53 12.68 65.35 12.33Q65.23 12.09 65.03 11.89ZM69.64 16.6L67 16.6L67 11.39L66.57 11.39L66.57 17L69.64 17L69.64 16.6ZM73.9 15.57L74.44 17L74.89 17L72.72 11.39L72.28 11.39L70.1 17L70.55 17L71.09 15.57L73.9 15.57ZM76.84 14.69L78.88 11.39L78.4 11.39L76.63 14.28L74.85 11.39L74.37 11.39L76.41 14.69L76.41 17L76.84 17L76.84 14.69ZM33.66 16.48Q33.24 16.3 32.9 15.96Q32.56 15.61 32.38 15.19Q32.19 14.74 32.19 14.2C32.19 13.51 32.42 12.92 32.9 12.44Q33.25 12.09 33.67 11.91Q34.12 11.72 34.65 11.72Q35.19 11.72 35.64 11.91Q36.05 12.1 36.39 12.44C36.87 12.92 37.11 13.51 37.11 14.2Q37.11 14.73 36.92 15.18Q36.74 15.6 36.39 15.96Q36.06 16.29 35.66 16.47Q35.2 16.68 34.65 16.68Q34.11 16.68 33.66 16.48ZM40.19 16.48Q39.77 16.3 39.43 15.96Q39.09 15.61 38.91 15.19Q38.72 14.74 38.72 14.2C38.72 13.51 38.95 12.92 39.43 12.44Q39.78 12.09 40.2 11.91Q40.65 11.72 41.18 11.72Q41.72 11.72 42.17 11.91Q42.58 12.1 42.93 12.44C43.41 12.92 43.65 13.51 43.65 14.2C43.65 14.88 43.41 15.47 42.93 15.96Q42.59 16.29 42.19 16.47Q41.73 16.68 41.18 16.68Q40.64 16.68 40.19 16.48ZM64.73 14.08Q64.6 14.22 64.44 14.3Q64.16 14.46 63.78 14.46L62.3 14.46L62.3 11.8L63.78 11.8Q64.16 11.8 64.44 11.95Q64.6 12.04 64.73 12.17C64.98 12.42 65.1 12.74 65.1 13.13C65.1 13.52 64.98 13.83 64.73 14.08ZM73.75 15.17L71.25 15.17L72.5 11.91L73.75 15.17Z" fill="#FFFFFF" fill-opacity="1.000000" fill-rule="evenodd"/>
</svg>
